<svg width="37" height="36" viewBox="0 0 37 36" fill="none" xmlns="http://www.w3.org/2000/svg">
<circle cx="18.9771" cy="18" r="18" fill="#5A67BA"/>
<path d="M17.5565 23.408L16.5005 21.9883C16.1876 22.0508 15.8826 22.0821 15.5853 22.0821C14.8109 22.0821 14.0991 21.9022 13.4499 21.5424C12.8084 21.1826 12.2961 20.682 11.9128 20.0405C11.5373 19.3913 11.3496 18.6638 11.3496 17.8581C11.3496 17.0524 11.5373 16.3289 11.9128 15.6875C12.2961 15.046 12.8084 14.5454 13.4499 14.1856C14.0991 13.8258 14.8109 13.6459 15.5853 13.6459C16.3597 13.6459 17.0676 13.8258 17.7091 14.1856C18.3583 14.5454 18.8668 15.046 19.2344 15.6875C19.6099 16.3289 19.7976 17.0524 19.7976 17.8581C19.7976 18.5621 19.6529 19.2075 19.3635 19.7941C19.0819 20.373 18.6868 20.854 18.1784 21.2373L19.9853 23.408H17.5565ZM13.4029 17.8581C13.4029 18.5856 13.5985 19.1684 13.9896 19.6064C14.3885 20.0366 14.9204 20.2517 15.5853 20.2517C16.2424 20.2517 16.7665 20.0327 17.1576 19.5947C17.5565 19.1566 17.756 18.5778 17.756 17.8581C17.756 17.1307 17.5565 16.5518 17.1576 16.1216C16.7665 15.6836 16.2424 15.4645 15.5853 15.4645C14.9204 15.4645 14.3885 15.6796 13.9896 16.1099C13.5985 16.5401 13.4029 17.1228 13.4029 17.8581ZM25.1373 22L23.4242 18.8907H22.9431V22H20.9367V13.7632H24.3042C24.9535 13.7632 25.5049 13.8766 25.9586 14.1035C26.4201 14.3303 26.7643 14.6432 26.9911 15.0421C27.218 15.4332 27.3314 15.8713 27.3314 16.3563C27.3314 16.9038 27.175 17.3927 26.8621 17.8229C26.557 18.2532 26.1033 18.5582 25.501 18.7381L27.4018 22H25.1373ZM22.9431 17.4709H24.1869C24.5545 17.4709 24.8283 17.381 25.0082 17.2011C25.1959 17.0212 25.2898 16.7669 25.2898 16.4384C25.2898 16.1255 25.1959 15.8791 25.0082 15.6992C24.8283 15.5193 24.5545 15.4293 24.1869 15.4293H22.9431V17.4709Z" fill="white"/>
</svg>
