<?xml version="1.0" standalone="no"?>
<!DOCTYPE svg PUBLIC "-//W3C//DTD SVG 20010904//EN"
 "http://www.w3.org/TR/2001/REC-SVG-20010904/DTD/svg10.dtd">
<svg version="1.0" xmlns="http://www.w3.org/2000/svg"
 width="500.000000pt" height="500.000000pt" viewBox="0 0 500.000000 500.000000"
 preserveAspectRatio="xMidYMid meet">

<g transform="translate(0.000000,500.000000) scale(0.100000,-0.100000)"
fill="#000000" stroke="none">
<path d="M2375 4013 c-174 -21 -316 -60 -469 -130 -161 -73 -278 -156 -416
-293 -214 -212 -342 -446 -407 -743 -23 -104 -26 -434 -4 -542 24 -122 88
-313 134 -400 164 -308 413 -541 725 -680 112 -49 139 -58 282 -87 140 -29
417 -31 560 -4 107 20 260 63 260 73 0 4 -107 114 -237 245 l-237 238 -62 0
c-131 0 -288 40 -423 108 -66 33 -208 155 -265 228 -23 30 -63 96 -89 147
-135 269 -129 551 18 822 85 155 213 277 380 360 137 68 193 80 375 80 181 0
237 -12 375 -80 218 -108 373 -285 453 -518 31 -89 36 -118 40 -226 8 -194
-27 -335 -120 -492 l-46 -77 67 -66 67 -66 36 49 c116 155 188 385 188 602 0
185 -36 336 -121 496 -145 278 -404 478 -716 555 -112 27 -310 29 -425 4 -208
-45 -393 -148 -542 -300 -98 -101 -146 -166 -198 -271 -149 -295 -154 -619
-17 -928 85 -191 269 -388 464 -497 95 -54 334 -120 432 -120 35 0 46 -8 126
-88 48 -48 87 -91 87 -96 0 -16 -330 1 -426 22 -305 69 -575 257 -755 526 -80
119 -104 168 -149 305 -97 292 -91 552 20 855 43 119 140 275 241 390 150 169
392 313 639 377 114 30 358 37 486 14 315 -56 602 -233 792 -488 38 -51 81
-112 95 -137 40 -69 95 -213 125 -325 24 -92 26 -115 26 -290 -1 -170 -4 -200
-26 -285 -53 -195 -110 -323 -204 -450 l-45 -61 30 -37 c16 -20 45 -52 65 -71
43 -42 43 -42 125 78 223 326 306 722 230 1103 -78 392 -317 741 -650 950
-262 165 -624 254 -894 221z"/>
<path d="M2323 3220 c-177 -46 -331 -176 -418 -352 -59 -120 -79 -213 -72
-338 17 -301 226 -553 518 -624 74 -18 210 -21 290 -6 l53 10 356 -354 c239
-239 367 -360 392 -371 68 -28 155 -16 213 28 19 15 11 25 -205 239 -124 123
-299 299 -389 391 l-165 168 61 62 c248 254 284 588 94 880 -84 128 -247 242
-390 272 -99 21 -248 19 -338 -5z m206 -226 c17 -4 42 -18 56 -32 24 -24 25
-30 25 -143 0 -72 4 -120 11 -124 10 -7 90 -12 202 -14 51 -1 62 -5 88 -30 39
-40 42 -115 5 -158 -24 -28 -26 -28 -163 -33 l-138 -5 -2 -110 c-2 -60 -5
-120 -8 -132 -7 -31 -54 -53 -110 -53 -38 0 -52 5 -76 29 -29 29 -29 30 -29
150 l0 121 -131 0 -131 0 -34 34 c-37 37 -45 82 -22 130 23 52 52 61 188 61
l125 0 5 126 c5 137 11 152 65 175 36 16 34 16 74 8z"/>
</g>
</svg>
