<?xml version="1.0" standalone="no"?>
<!DOCTYPE svg PUBLIC "-//W3C//DTD SVG 20010904//EN"
 "http://www.w3.org/TR/2001/REC-SVG-20010904/DTD/svg10.dtd">
<svg version="1.0" xmlns="http://www.w3.org/2000/svg"
 width="200.000000pt" height="73.000000pt" viewBox="0 0 200.000000 73.000000"
 preserveAspectRatio="xMidYMid meet">

<g transform="translate(0.000000,73.000000) scale(0.100000,-0.100000)"
fill="#000000" stroke="none">
<path d="M65 651 c-33 -14 -56 -47 -62 -88 -5 -37 -3 -39 38 -58 50 -23 57
-36 33 -60 -12 -12 -26 -15 -46 -11 l-29 6 3 -165 3 -165 28 -27 c27 -28 29
-28 177 -31 l150 -4 0 55 c0 34 10 83 24 124 36 99 40 134 22 176 -11 26 -26
41 -53 53 -65 28 -68 31 -68 55 0 45 84 37 142 -14 71 -63 81 -142 33 -277
-29 -84 -37 -135 -22 -156 10 -16 70 -15 109 1 22 10 39 26 48 49 25 59 17 60
-41 4 -58 -56 -74 -66 -74 -50 0 6 27 37 61 69 72 68 62 84 -13 19 -65 -57
-88 -48 -25 10 39 36 44 44 31 52 -9 5 -14 18 -12 33 3 21 8 24 46 24 l44 0
-4 162 c-3 162 -3 163 -31 190 -27 28 -29 28 -177 31 l-150 3 0 -54 c0 -30 -7
-74 -16 -98 -26 -70 -43 -129 -39 -129 3 0 23 16 44 35 22 20 42 32 45 27 3
-5 -17 -31 -44 -56 -28 -26 -48 -52 -44 -57 3 -5 32 15 65 46 57 52 79 65 79
47 0 -4 -29 -34 -65 -66 -60 -53 -77 -76 -57 -76 4 0 38 27 75 61 37 33 72 59
78 57 6 -2 -21 -34 -60 -70 -43 -39 -67 -69 -61 -73 6 -4 35 16 65 44 50 47
75 62 75 44 0 -5 -23 -27 -50 -51 l-50 -43 21 -18 c18 -15 20 -21 10 -39 -14
-26 -38 -28 -88 -7 -50 21 -72 42 -94 90 -27 57 -23 119 11 225 17 51 30 96
28 101 -2 5 -25 -10 -51 -32 -67 -58 -72 -40 -7 26 30 30 51 57 48 61 -4 3
-34 -19 -67 -50 -56 -51 -81 -67 -81 -49 0 3 24 28 53 54 40 37 47 48 32 48
-11 0 -29 -4 -40 -8z"/>
<path d="M1180 385 c0 -78 3 -95 15 -95 12 0 15 17 15 95 0 78 -3 95 -15 95
-12 0 -15 -17 -15 -95z"/>
<path d="M1340 385 c0 -76 3 -95 14 -95 11 0 16 15 18 53 3 48 5 52 28 52 23
0 25 -4 28 -52 2 -38 7 -53 18 -53 10 0 14 14 14 58 0 62 -11 82 -45 82 -12 0
-26 -5 -33 -12 -9 -9 -12 -4 -12 25 0 26 -4 37 -15 37 -12 0 -15 -17 -15 -95z"/>
<path d="M723 383 c4 -49 6 -89 7 -90 0 -2 7 -3 15 -3 11 0 15 11 15 40 l0 40
40 0 40 0 0 -40 c0 -29 4 -40 15 -40 12 0 15 17 15 90 0 73 -3 90 -15 90 -10
0 -15 -11 -15 -35 0 -34 -1 -35 -40 -35 -39 0 -40 1 -40 35 0 29 -4 35 -21 35
-21 0 -21 -3 -16 -87z"/>
<path d="M1504 462 c-15 -10 -24 -39 -18 -57 3 -8 21 -23 40 -34 19 -11 34
-28 34 -37 0 -14 -7 -16 -40 -11 -30 4 -40 2 -40 -9 0 -17 42 -28 75 -20 56
14 52 71 -6 101 -41 22 -36 51 9 47 23 -1 32 2 32 13 0 11 -11 15 -37 15 -21
0 -43 -4 -49 -8z"/>
<path d="M1245 434 c-9 -15 -13 -29 -8 -33 5 -3 8 -19 7 -36 -2 -52 12 -75 46
-75 20 0 30 5 30 15 0 8 -9 15 -21 15 -18 0 -20 5 -17 43 2 33 7 42 21 41 9
-1 17 4 17 12 0 8 -9 14 -20 14 -11 0 -20 7 -20 15 0 23 -16 18 -35 -11z"/>
<path d="M916 414 c-23 -22 -21 -87 3 -108 22 -20 82 -19 89 2 3 9 -3 11 -22
6 -26 -6 -56 9 -56 27 0 5 20 9 45 9 41 0 45 2 45 23 0 49 -70 76 -104 41z
m63 -17 c14 -17 4 -27 -26 -27 -25 0 -29 10 -11 28 15 15 23 15 37 -1z"/>
<path d="M1057 423 c-16 -15 -5 -24 22 -18 21 4 30 2 34 -9 5 -11 -2 -17 -21
-21 -39 -9 -57 -20 -60 -39 -8 -37 48 -62 75 -35 8 8 13 8 17 0 4 -6 11 -11
17 -11 13 0 11 114 -3 128 -13 13 -70 17 -81 5z m58 -73 c7 -12 -12 -40 -27
-40 -16 0 -21 32 -7 41 18 12 26 11 34 -1z"/>
<path d="M1600 427 c0 -3 11 -34 25 -71 25 -66 25 -96 -1 -96 -8 0 -14 -7 -14
-15 0 -8 5 -15 11 -15 29 0 50 27 78 101 35 92 36 99 17 99 -8 0 -20 -17 -26
-37 -18 -57 -26 -59 -42 -11 -8 24 -22 44 -31 46 -9 2 -17 1 -17 -1z"/>
<path d="M1749 380 c-1 -27 -2 -58 -3 -67 0 -10 7 -19 16 -21 14 -3 17 6 20
50 3 49 5 53 28 53 23 0 25 -4 28 -52 2 -39 7 -53 18 -53 12 0 14 12 12 61 -4
74 -19 90 -68 72 -16 -6 -30 -7 -30 -2 0 5 -4 9 -10 9 -5 0 -11 -22 -11 -50z"/>
<path d="M1910 410 c-24 -24 -26 -67 -4 -98 18 -26 84 -32 84 -7 0 9 -9 15
-24 15 -29 0 -46 19 -41 45 2 11 4 23 4 28 1 4 15 7 31 7 20 0 30 5 30 15 0
22 -56 19 -80 -5z"/>
</g>
</svg>
